<?xml version="1.0" standalone="no"?>
<!DOCTYPE svg PUBLIC "-//W3C//DTD SVG 20010904//EN"
 "http://www.w3.org/TR/2001/REC-SVG-20010904/DTD/svg10.dtd">
<svg version="1.0" xmlns="http://www.w3.org/2000/svg"
 width="518.000000pt" height="482.000000pt" viewBox="0 0 518.000000 482.000000"
 preserveAspectRatio="xMidYMid meet">

<g transform="translate(0.000000,482.000000) scale(0.100000,-0.100000)"
fill="#000000" stroke="none">
<path d="M619 4809 c-74 -11 -206 -60 -277 -103 -74 -45 -187 -158 -231 -230
-19 -32 -50 -96 -70 -144 l-36 -87 -3 -1834 -2 -1833 29 -84 c75 -220 234
-378 457 -455 l99 -34 1976 -3 1977 -2 88 31 c49 17 112 43 139 56 54 27 200
170 243 237 13 22 32 48 42 59 10 10 21 31 25 45 4 15 24 62 45 104 22 45 43
106 49 145 8 49 11 531 8 1728 -3 1677 -4 1753 -38 1828 -8 18 -8 17 -3 -8 9
-49 -3 -25 -31 60 -56 168 -163 314 -295 401 -22 15 -77 42 -121 59 -51 21
-74 35 -63 37 12 3 0 10 -31 18 -42 12 -366 14 -1985 16 -1064 1 -1960 -2
-1991 -7z m3936 -315 c104 -42 211 -128 247 -199 49 -94 50 -104 59 -780 11
-809 11 -2032 0 -2500 -8 -329 -11 -365 -30 -419 -26 -73 -85 -153 -153 -207
-129 -102 -57 -96 -1318 -102 -1412 -7 -2682 4 -2762 25 -97 26 -221 135 -272
241 -14 29 -25 46 -26 38 0 -8 16 -44 36 -80 20 -36 29 -59 20 -52 -18 15 -76
128 -76 148 0 8 5 11 12 7 8 -5 9 -2 2 12 -11 23 -15 512 -14 1739 1 1543 3
1751 24 1820 45 158 175 283 326 314 30 6 69 12 85 14 17 1 876 2 1910 1 1858
0 1881 0 1930 -20z"/>
<path d="M2280 3364 c-68 -13 -176 -47 -218 -68 -72 -37 -166 -136 -207 -219
-133 -270 -55 -569 180 -694 33 -17 144 -59 247 -93 215 -70 267 -100 316
-180 25 -42 32 -65 32 -105 0 -104 -81 -206 -188 -236 -46 -13 -200 -7 -211 8
-12 17 -62 44 -71 38 -15 -9 -92 69 -123 124 -16 28 -26 51 -24 51 2 0 25 -31
51 -69 26 -38 59 -77 74 -87 20 -13 15 -4 -18 33 -25 27 -56 71 -69 97 -13 26
-29 50 -36 53 -15 5 -223 -151 -232 -173 -9 -23 57 -124 124 -188 128 -125
248 -176 423 -183 132 -6 209 9 300 58 132 71 253 231 296 391 43 162 -18 342
-157 463 l-34 30 36 -40 c35 -40 89 -119 89 -131 0 -3 -20 20 -44 52 -24 33
-56 71 -72 86 -52 48 -186 118 -289 150 -55 17 -104 33 -110 37 -5 3 -14 6
-20 8 -135 30 -191 64 -229 140 -18 37 -22 67 -5 43 7 -11 8 -5 2 20 -21 93 6
186 69 234 84 63 218 72 313 23 63 -33 90 -58 143 -130 24 -31 46 -57 51 -57
4 0 28 15 52 33 24 19 74 51 112 73 37 21 67 44 67 50 0 16 -101 167 -107 160
-3 -3 4 -17 14 -33 29 -42 37 -62 11 -28 -58 77 -141 148 -209 179 -38 18 -67
35 -63 38 3 4 -5 4 -18 1 -16 -3 -19 -2 -10 5 10 7 2 12 -30 20 -52 13 -174
22 -208 16z"/>
<path d="M915 3351 c-29 -6 -32 -12 -100 -216 -39 -115 -107 -318 -152 -450
-45 -132 -96 -292 -113 -355 -18 -63 -50 -171 -72 -240 -43 -137 -108 -444
-111 -528 -1 -38 2 -55 13 -62 8 -5 59 -10 112 -10 109 0 118 5 139 85 24 89
113 306 128 313 9 4 128 6 264 4 l248 -3 19 -42 c11 -23 45 -107 76 -187 31
-80 61 -151 67 -157 10 -14 279 -19 311 -7 26 10 19 38 -45 187 -64 151 -74
169 -65 122 4 -21 1 -18 -8 10 -8 22 -15 50 -15 62 -1 22 -110 324 -120 333
-3 3 -6 10 -6 15 0 19 -28 90 -40 101 -7 7 -20 45 -30 86 -9 40 -22 82 -28 93
-6 11 -10 23 -9 28 1 4 -2 7 -6 7 -9 0 -36 66 -86 205 -13 39 -42 117 -64 175
-21 58 -65 180 -98 273 l-59 167 -60 -1 c-33 -1 -73 -4 -90 -8z m206 -986 c21
-60 40 -125 41 -144 4 -45 -9 -49 -185 -50 -161 -1 -160 -3 -133 98 20 73 89
263 131 356 l27 59 40 -104 c22 -58 57 -154 79 -215z"/>
<path d="M3118 3349 c-11 -7 -13 -173 -13 -936 l0 -928 130 3 c72 2 138 6 148
8 16 5 17 32 17 382 0 404 8 604 22 600 5 -2 31 -53 58 -113 26 -61 55 -123
63 -140 24 -46 86 -184 109 -240 58 -146 203 -463 221 -482 22 -25 68 -31 85
-10 6 6 14 26 18 42 4 17 22 58 41 93 18 35 33 70 33 78 0 8 15 45 34 82 18
37 43 94 54 127 11 33 48 112 80 175 33 63 92 190 133 283 40 92 76 167 79
167 12 0 20 -273 20 -666 0 -318 2 -383 14 -387 16 -6 266 10 273 17 7 6 2
994 -6 1481 l-6 370 -149 0 -150 0 -83 -205 c-46 -113 -109 -268 -142 -345
-32 -77 -93 -225 -134 -330 -109 -275 -134 -328 -152 -321 -8 3 -15 0 -15 -6
0 -23 -17 7 -59 105 -23 53 -39 102 -36 107 3 6 1 10 -5 10 -6 0 -8 5 -5 10 3
6 1 10 -5 10 -6 0 -8 5 -5 10 3 6 2 10 -4 10 -5 0 -12 15 -16 33 -4 17 -23 66
-42 107 -19 41 -52 111 -73 155 -113 240 -249 560 -249 585 0 8 8 -3 19 -25
23 -47 15 -9 -11 53 l-19 43 -129 -2 c-71 -1 -135 -5 -143 -10z"/>
<path d="M1086 3327 c3 -10 9 -15 12 -12 3 3 0 11 -7 18 -10 9 -11 8 -5 -6z"/>
<path d="M2114 2715 c8 -17 24 -39 37 -50 23 -19 22 -19 -1 11 -14 17 -31 40
-38 50 -7 11 -6 7 2 -11z"/>
<path d="M2560 2505 c14 -8 30 -14 35 -14 6 0 -1 6 -15 14 -14 8 -29 14 -35
14 -5 0 1 -6 15 -14z"/>
<path d="M2630 2476 c0 -3 14 -12 30 -21 17 -9 30 -13 30 -11 0 3 -13 12 -30
21 -16 9 -30 13 -30 11z"/>
<path d="M5000 4516 c0 -2 8 -10 18 -17 15 -13 16 -12 3 4 -13 16 -21 21 -21
13z"/>
</g>
</svg>
